<svg xmlns="http://www.w3.org/2000/svg" viewBox="0 0 354.98 417.55"><title>Asset 2</title><g id="Layer_2" data-name="Layer 2"><g id="Logo_New" data-name="Logo New"><rect x="136.41" y="53.79" width="82.17" height="26.05" rx="13.03" ry="13.03" transform="translate(110.68 244.3) rotate(-90)" style="fill:#ffa400"/><path d="M59.81,109.59l14.91,13a6.6,6.6,0,0,1,0,10l-15,12.94a8.66,8.66,0,0,1-7.91,1.62L4.8,133.8a6.6,6.6,0,0,1,0-12.7L51.9,107.94A8.66,8.66,0,0,1,59.81,109.59Z" style="fill:#ffa400"/><path d="M81.59,198.06l19.73-1.36a6.59,6.59,0,0,1,7,7.06l-1.44,19.75a8.64,8.64,0,0,1-4.44,6.73L59.81,254.07a6.6,6.6,0,0,1-9-9l24-42.59A8.67,8.67,0,0,1,81.59,198.06Z" style="fill:#ffa400"/><path d="M159.55,245.21l13-14.91a6.6,6.6,0,0,1,10,0l12.94,15a8.65,8.65,0,0,1,1.62,7.91l-13.31,47a6.6,6.6,0,0,1-12.7,0L157.9,253.12A8.66,8.66,0,0,1,159.55,245.21Z" style="fill:#ffa400"/><path d="M248,223.43l-1.36-19.73a6.59,6.59,0,0,1,7.06-7l19.75,1.44a8.65,8.65,0,0,1,6.73,4.45L304,245.2a6.6,6.6,0,0,1-9,9l-42.59-24A8.67,8.67,0,0,1,248,223.43Z" style="fill:#ffa400"/><path d="M295.17,145.47l-14.91-13a6.6,6.6,0,0,1,0-10l15-12.94a8.65,8.65,0,0,1,7.91-1.62l47,13.31a6.6,6.6,0,0,1,0,12.7l-47.08,13.16A8.66,8.66,0,0,1,295.17,145.47Z" style="fill:#ffa400"/><path d="M273.39,57l-19.73,1.36a6.6,6.6,0,0,1-7-7.06l1.44-19.75a8.68,8.68,0,0,1,4.45-6.74L295.17,1a6.59,6.59,0,0,1,9,9l-24,42.6A8.67,8.67,0,0,1,273.39,57Z" style="fill:#ffa400"/><path d="M107,31.63l1.36,19.73a6.59,6.59,0,0,1-7.06,7L81.51,57a8.7,8.7,0,0,1-6.74-4.44L51,9.85a6.59,6.59,0,0,1,9-9l42.6,24A8.67,8.67,0,0,1,107,31.63Z" style="fill:#ffa400"/><path d="M207.25,75.56h0a12.28,12.28,0,0,0,4.52,9.58c17.06,13.82,25.66,37.7,16.63,62.54a51.47,51.47,0,0,1-30.16,30.54c-38.7,14.49-75.3-13.91-75.3-50.69a54.46,54.46,0,0,1,20.37-42.47,12.18,12.18,0,0,0,4.42-9.5h0c0-10.42-12.1-16.32-20.2-9.76a79.31,79.31,0,0,0-29.17,69c3.25,36.24,36.73,69.2,73,71.93A79.42,79.42,0,0,0,227.69,66,12.47,12.47,0,0,0,207.25,75.56Z" style="fill:#ffa400"/><text transform="translate(6.64 397.68)" style="font-size:72px;fill:#333;font-family:Europa-Bold, Europa-Bold;font-weight:700">Sun Hac<tspan x="266.76" y="0" style="letter-spacing:-0.013997395833333334em">k</tspan><tspan x="304.27" y="0">s</tspan></text></g></g></svg>