<?xml version="1.0" standalone="no"?>
<!DOCTYPE svg PUBLIC "-//W3C//DTD SVG 20010904//EN"
 "http://www.w3.org/TR/2001/REC-SVG-20010904/DTD/svg10.dtd">
<svg version="1.0" xmlns="http://www.w3.org/2000/svg"
 width="445.000000pt" height="445.000000pt" viewBox="0 0 445.000000 445.000000"
 preserveAspectRatio="xMidYMid meet">
<metadata>
Created by potrace 1.11, written by Peter Selinger 2001-2013
</metadata>
<g transform="translate(0.000000,445.000000) scale(0.100000,-0.100000)"
fill="#000000" stroke="none">
<path d="M977 3730 c-15 -12 -27 -31 -27 -43 0 -30 250 -476 277 -494 12 -8
50 -17 85 -19 139 -10 162 -11 180 -6 21 5 50 54 44 74 -3 7 -7 54 -10 103 -7
115 -11 126 -49 152 -61 41 -427 243 -450 248 -15 4 -32 -1 -50 -15z"/>
<path d="M3414 3742 c-39 -13 -442 -243 -462 -265 -18 -19 -22 -40 -28 -132
-3 -61 -8 -112 -10 -114 -6 -7 25 -58 38 -63 7 -3 36 -4 63 -2 28 2 80 6 118
8 37 2 78 11 90 19 28 19 277 460 277 492 0 14 -11 32 -26 44 -29 22 -28 22
-60 13z"/>
<path d="M2163 3474 c-18 -9 -40 -32 -51 -54 -17 -36 -19 -63 -18 -347 2 -346
4 -355 73 -388 48 -23 85 -22 127 5 60 36 63 58 62 405 -1 293 -2 312 -21 337
-40 54 -111 72 -172 42z"/>
<path d="M1753 3105 c-18 -7 -59 -41 -92 -75 -275 -281 -307 -700 -79 -1010
159 -215 402 -343 643 -340 107 1 121 3 205 25 238 62 449 250 534 477 63 167
71 371 21 523 -45 136 -109 241 -209 339 -77 76 -138 91 -202 49 -30 -19 -56
-76 -50 -110 2 -16 5 -31 5 -36 1 -4 34 -43 75 -87 154 -164 202 -356 139
-555 -75 -238 -269 -375 -532 -376 -164 -1 -340 96 -434 238 -65 99 -89 171
-93 278 -4 111 8 168 53 264 25 53 56 96 103 144 77 78 88 98 85 148 -2 45
-28 83 -70 103 -40 19 -60 20 -102 1z"/>
<path d="M915 2655 c-36 -12 -237 -69 -282 -80 -76 -19 -146 -44 -163 -58 -25
-21 -26 -58 -2 -85 24 -28 513 -167 547 -155 13 4 65 43 115 86 123 106 123
114 -6 224 -27 23 -60 51 -73 62 -28 24 -77 27 -136 6z"/>
<path d="M3369 2624 c-163 -138 -168 -151 -86 -227 132 -125 155 -135 239
-110 28 8 59 16 67 19 9 2 57 15 106 29 50 14 97 28 105 30 83 19 166 48 181
61 25 22 24 68 0 91 -11 10 -53 27 -93 38 -40 10 -75 20 -78 20 -3 1 -12 4
-20 7 -64 23 -314 88 -337 88 -20 0 -46 -14 -84 -46z"/>
<path d="M1336 1773 c-1 -1 -20 -3 -41 -4 -73 -5 -82 -13 -175 -184 -12 -22
-55 -99 -96 -170 -41 -72 -74 -140 -74 -151 0 -33 28 -64 59 -64 26 0 56 14
166 77 22 12 102 57 178 99 76 42 144 86 152 98 7 11 16 50 19 86 18 213 13
223 -107 218 -43 -2 -80 -4 -81 -5z"/>
<path d="M2932 1756 c-11 -15 -19 -37 -17 -49 2 -12 6 -65 10 -117 3 -52 12
-104 20 -116 11 -18 89 -64 388 -231 87 -49 128 -54 151 -21 24 34 20 50 -36
150 -28 51 -82 147 -118 214 -89 159 -92 163 -115 171 -31 10 -42 12 -156 19
l-106 6 -21 -26z"/>
<path d="M2190 1453 c-37 -23 -143 -151 -156 -187 -7 -18 -8 -41 -3 -56 4 -14
35 -126 69 -250 36 -131 70 -233 80 -244 20 -21 63 -24 84 -6 18 15 31 52 105
319 45 163 57 220 50 238 -9 23 -128 166 -158 190 -21 17 -41 16 -71 -4z"/>
</g>
</svg>
